<?xml version="1.0" encoding="UTF-8"?>
<svg xmlns="http://www.w3.org/2000/svg" xmlns:xlink="http://www.w3.org/1999/xlink" width="100px" height="44px" viewBox="0 0 100 44" version="1.1">
<g id="surface1">
<path style=" stroke:none;fill-rule:nonzero;fill:rgb(11.372549%,11.372549%,10.588235%);fill-opacity:1;" d="M 12.183594 37.546875 C 12.183594 35.660156 13.640625 34.277344 15.621094 34.277344 C 17.601562 34.277344 19.054688 35.660156 19.054688 37.546875 C 19.054688 39.433594 17.59375 40.8125 15.625 40.8125 C 13.65625 40.8125 12.183594 39.421875 12.183594 37.546875 Z M 17.585938 37.546875 C 17.585938 36.34375 16.753906 35.527344 15.621094 35.527344 C 14.488281 35.527344 13.65625 36.34375 13.65625 37.546875 C 13.65625 38.75 14.488281 39.566406 15.621094 39.566406 C 16.753906 39.566406 17.585938 38.75 17.585938 37.546875 Z M 17.585938 37.546875 "/>
<path style=" stroke:none;fill-rule:nonzero;fill:rgb(11.372549%,11.372549%,10.588235%);fill-opacity:1;" d="M 25.316406 38.277344 C 25.316406 39.800781 24.261719 40.777344 22.910156 40.777344 C 22.359375 40.804688 21.828125 40.589844 21.449219 40.191406 L 21.449219 42.457031 L 20.050781 42.457031 L 20.050781 35.847656 L 21.390625 35.847656 L 21.390625 36.40625 C 21.773438 35.972656 22.332031 35.742188 22.910156 35.777344 C 24.261719 35.777344 25.316406 36.753906 25.316406 38.277344 Z M 23.894531 38.277344 C 23.894531 37.441406 23.367188 36.933594 22.667969 36.933594 C 21.964844 36.933594 21.433594 37.4375 21.433594 38.277344 C 21.433594 39.121094 21.964844 39.621094 22.667969 39.621094 C 23.367188 39.621094 23.894531 39.117188 23.894531 38.277344 Z M 23.894531 38.277344 "/>
<path style=" stroke:none;fill-rule:nonzero;fill:rgb(11.372549%,11.372549%,10.588235%);fill-opacity:1;" d="M 30.949219 38.675781 L 27.292969 38.675781 C 27.425781 39.277344 27.933594 39.648438 28.671875 39.648438 C 29.125 39.667969 29.5625 39.496094 29.882812 39.179688 L 30.628906 39.992188 C 30.179688 40.507812 29.507812 40.777344 28.636719 40.777344 C 26.972656 40.777344 25.882812 39.730469 25.882812 38.277344 C 25.882812 36.828125 26.984375 35.777344 28.457031 35.777344 C 29.875 35.777344 30.972656 36.734375 30.972656 38.292969 C 30.976562 38.40625 30.957031 38.558594 30.949219 38.675781 Z M 27.277344 37.855469 L 29.65625 37.855469 C 29.558594 37.269531 29.054688 36.839844 28.464844 36.839844 C 27.878906 36.839844 27.375 37.269531 27.277344 37.855469 Z M 27.277344 37.855469 "/>
<path style=" stroke:none;fill-rule:nonzero;fill:rgb(11.372549%,11.372549%,10.588235%);fill-opacity:1;" d="M 36.847656 37.925781 L 36.847656 40.707031 L 35.445312 40.707031 L 35.445312 38.140625 C 35.445312 37.355469 35.085938 36.996094 34.464844 36.996094 C 33.796875 36.996094 33.308594 37.414062 33.308594 38.304688 L 33.308594 40.707031 L 31.910156 40.707031 L 31.910156 35.847656 L 33.246094 35.847656 L 33.246094 36.417969 C 33.664062 35.984375 34.246094 35.75 34.847656 35.773438 C 35.984375 35.777344 36.847656 36.449219 36.847656 37.925781 Z M 36.847656 37.925781 "/>
<path style=" stroke:none;fill-rule:nonzero;fill:rgb(11.372549%,11.372549%,10.588235%);fill-opacity:1;" d="M 37.707031 40.082031 L 38.203125 38.984375 C 38.816406 39.40625 39.542969 39.636719 40.285156 39.640625 C 41.144531 39.640625 41.496094 39.351562 41.496094 38.964844 C 41.496094 37.78125 37.847656 38.59375 37.847656 36.242188 C 37.847656 35.167969 38.707031 34.273438 40.492188 34.273438 C 41.257812 34.257812 42.011719 34.449219 42.671875 34.835938 L 42.222656 35.945312 C 41.695312 35.628906 41.097656 35.457031 40.484375 35.445312 C 39.621094 35.445312 39.289062 35.769531 39.289062 36.167969 C 39.289062 37.332031 42.941406 36.53125 42.941406 38.847656 C 42.941406 39.90625 42.070312 40.808594 40.273438 40.808594 C 39.277344 40.8125 38.273438 40.519531 37.707031 40.082031 Z M 37.707031 40.082031 "/>
<path style=" stroke:none;fill-rule:nonzero;fill:rgb(11.372549%,11.372549%,10.588235%);fill-opacity:1;" d="M 48.542969 38.675781 L 44.886719 38.675781 C 45.019531 39.277344 45.535156 39.648438 46.269531 39.648438 C 46.71875 39.667969 47.160156 39.496094 47.484375 39.179688 L 48.226562 39.992188 C 47.777344 40.507812 47.105469 40.777344 46.234375 40.777344 C 44.566406 40.777344 43.480469 39.730469 43.480469 38.277344 C 43.480469 36.828125 44.582031 35.777344 46.054688 35.777344 C 47.472656 35.777344 48.566406 36.734375 48.566406 38.292969 C 48.566406 38.40625 48.542969 38.558594 48.542969 38.675781 Z M 44.871094 37.855469 L 47.25 37.855469 C 47.148438 37.269531 46.648438 36.84375 46.058594 36.84375 C 45.472656 36.84375 44.96875 37.269531 44.867188 37.855469 Z M 44.871094 37.855469 "/>
<path style=" stroke:none;fill-rule:nonzero;fill:rgb(11.372549%,11.372549%,10.588235%);fill-opacity:1;" d="M 54.4375 37.925781 L 54.4375 40.707031 L 53.035156 40.707031 L 53.035156 38.140625 C 53.035156 37.355469 52.679688 36.996094 52.058594 36.996094 C 51.386719 36.996094 50.898438 37.414062 50.898438 38.304688 L 50.898438 40.707031 L 49.5 40.707031 L 49.5 35.847656 L 50.832031 35.847656 L 50.832031 36.417969 C 51.25 35.984375 51.832031 35.753906 52.429688 35.773438 C 53.574219 35.777344 54.4375 36.449219 54.4375 37.925781 Z M 54.4375 37.925781 "/>
<path style=" stroke:none;fill-rule:nonzero;fill:rgb(11.372549%,11.372549%,10.588235%);fill-opacity:1;" d="M 55.238281 40.25 L 55.703125 39.238281 C 56.210938 39.542969 56.789062 39.707031 57.382812 39.710938 C 58.027344 39.710938 58.269531 39.539062 58.269531 39.265625 C 58.269531 38.472656 55.355469 39.28125 55.355469 37.347656 C 55.355469 36.425781 56.1875 35.773438 57.589844 35.773438 C 58.234375 35.757812 58.871094 35.902344 59.449219 36.191406 L 58.980469 37.195312 C 58.558594 36.953125 58.078125 36.828125 57.589844 36.832031 C 56.964844 36.832031 56.691406 37.039062 56.691406 37.285156 C 56.691406 38.121094 59.609375 37.308594 59.609375 39.222656 C 59.609375 40.125 58.773438 40.765625 57.328125 40.765625 C 56.597656 40.78125 55.878906 40.601562 55.238281 40.25 Z M 55.238281 40.25 "/>
<path style=" stroke:none;fill-rule:nonzero;fill:rgb(11.372549%,11.372549%,10.588235%);fill-opacity:1;" d="M 65.171875 38.675781 L 61.515625 38.675781 C 61.652344 39.277344 62.167969 39.648438 62.902344 39.648438 C 63.351562 39.667969 63.789062 39.496094 64.109375 39.179688 L 64.855469 39.992188 C 64.410156 40.507812 63.734375 40.777344 62.863281 40.777344 C 61.199219 40.777344 60.109375 39.730469 60.109375 38.277344 C 60.109375 36.828125 61.210938 35.777344 62.683594 35.777344 C 64.101562 35.777344 65.199219 36.734375 65.199219 38.292969 C 65.207031 38.40625 65.179688 38.558594 65.171875 38.675781 Z M 61.503906 37.855469 L 63.878906 37.855469 C 63.785156 37.265625 63.28125 36.835938 62.691406 36.835938 C 62.101562 36.835938 61.597656 37.265625 61.503906 37.855469 Z M 61.503906 37.855469 "/>
<path style=" stroke:none;fill-rule:nonzero;fill:rgb(11.372549%,11.372549%,10.588235%);fill-opacity:1;" d="M 68.769531 34.382812 L 70.230469 34.382812 L 70.230469 39.515625 L 73.375 39.515625 L 73.375 40.707031 L 68.769531 40.707031 Z M 68.769531 34.382812 "/>
<path style=" stroke:none;fill-rule:nonzero;fill:rgb(11.372549%,11.372549%,10.588235%);fill-opacity:1;" d="M 78.363281 37.945312 L 78.363281 40.714844 L 77.054688 40.714844 L 77.054688 40.101562 C 76.792969 40.542969 76.292969 40.777344 75.582031 40.777344 C 74.453125 40.777344 73.777344 40.148438 73.777344 39.308594 C 73.777344 38.472656 74.382812 37.859375 75.851562 37.859375 L 76.960938 37.859375 C 76.960938 37.253906 76.605469 36.898438 75.851562 36.898438 C 75.351562 36.894531 74.863281 37.054688 74.460938 37.355469 L 73.957031 36.363281 C 74.578125 35.964844 75.304688 35.761719 76.042969 35.777344 C 77.511719 35.777344 78.363281 36.464844 78.363281 37.945312 Z M 76.960938 39.179688 L 76.960938 38.683594 L 76.003906 38.683594 C 75.351562 38.683594 75.140625 38.925781 75.140625 39.25 C 75.140625 39.574219 75.441406 39.835938 75.929688 39.835938 C 76.382812 39.863281 76.796875 39.59375 76.960938 39.171875 Z M 76.960938 39.179688 "/>
<path style=" stroke:none;fill-rule:nonzero;fill:rgb(11.372549%,11.372549%,10.588235%);fill-opacity:1;" d="M 84.886719 38.277344 C 84.886719 39.800781 83.847656 40.777344 82.484375 40.777344 C 81.910156 40.808594 81.351562 40.578125 80.964844 40.148438 L 80.964844 40.707031 L 79.632812 40.707031 L 79.632812 34 L 81.027344 34 L 81.027344 36.355469 C 81.40625 35.953125 81.9375 35.742188 82.488281 35.769531 C 83.839844 35.777344 84.886719 36.753906 84.886719 38.277344 Z M 83.472656 38.277344 C 83.472656 37.441406 82.941406 36.933594 82.242188 36.933594 C 81.542969 36.933594 81.011719 37.4375 81.011719 38.277344 C 81.011719 39.121094 81.542969 39.621094 82.242188 39.621094 C 82.941406 39.621094 83.472656 39.117188 83.472656 38.277344 Z M 83.472656 38.277344 "/>
<path style=" stroke:none;fill-rule:nonzero;fill:rgb(11.372549%,11.372549%,10.588235%);fill-opacity:1;" d="M 85.355469 40.25 L 85.832031 39.242188 C 86.339844 39.546875 86.917969 39.710938 87.511719 39.714844 C 88.15625 39.714844 88.398438 39.542969 88.398438 39.269531 C 88.398438 38.476562 85.484375 39.285156 85.484375 37.351562 C 85.484375 36.429688 86.316406 35.777344 87.714844 35.777344 C 88.359375 35.761719 88.996094 35.90625 89.574219 36.195312 L 89.109375 37.199219 C 88.683594 36.957031 88.203125 36.832031 87.714844 36.835938 C 87.089844 36.835938 86.820312 37.042969 86.820312 37.289062 C 86.820312 38.125 89.734375 37.3125 89.734375 39.226562 C 89.734375 40.132812 88.902344 40.769531 87.457031 40.769531 C 86.632812 40.777344 85.804688 40.550781 85.355469 40.25 Z M 85.355469 40.25 "/>
<path style=" stroke:none;fill-rule:nonzero;fill:rgb(24.313725%,52.941176%,78.431373%);fill-opacity:1;" d="M 15.703125 31.28125 C 7.121094 31.371094 0.0898438 24.445312 0.00390625 15.8125 C -0.0820312 7.179688 6.800781 0.113281 15.382812 0.0234375 C 23.96875 -0.0664062 30.996094 6.859375 31.085938 15.492188 L 31.085938 15.628906 C 31.136719 24.21875 24.261719 31.226562 15.71875 31.28125 L 15.707031 31.28125 "/>
<path style=" stroke:none;fill-rule:nonzero;fill:rgb(97.647059%,69.803922%,20%);fill-opacity:1;" d="M 100 31.28125 L 69.214844 31.28125 L 69.214844 0.0234375 Z M 100 31.28125 "/>
<path style=" stroke:none;fill-rule:nonzero;fill:rgb(87.843137%,25.490196%,14.509804%);fill-opacity:1;" d="M 34.75 0.0390625 L 65.527344 0.0390625 L 65.527344 31.285156 L 34.75 31.285156 Z M 34.75 0.0390625 "/>
<path style=" stroke:none;fill-rule:nonzero;fill:rgb(100%,100%,100%);fill-opacity:1;" d="M 42.835938 21.363281 L 55.957031 8.171875 L 57.441406 9.664062 L 44.324219 22.859375 Z M 42.835938 21.363281 "/>
</g>
</svg>
