<?xml version="1.0" encoding="UTF-8"?>
<svg xmlns="http://www.w3.org/2000/svg" xmlns:xlink="http://www.w3.org/1999/xlink" width="60px" height="60px" viewBox="0 0 60 60" version="1.1">
<g id="surface1">
<path style=" stroke:none;fill-rule:nonzero;fill:rgb(33.72549%,23.921569%,48.627451%);fill-opacity:1;" d="M 0 52.261719 C 0 56.535156 3.464844 60 7.738281 60 L 52.261719 60 C 56.535156 60 60 56.535156 60 52.261719 L 60 7.738281 C 60 3.464844 56.535156 0 52.261719 0 L 7.738281 0 C 3.464844 0 0 3.464844 0 7.738281 Z M 0 52.261719 "/>
<path style=" stroke:none;fill-rule:nonzero;fill:rgb(100%,100%,100%);fill-opacity:1;" d="M 24.878906 26.539062 L 24.878906 18.042969 L 32.359375 18.042969 C 33.074219 18.042969 33.757812 18.101562 34.421875 18.222656 C 35.082031 18.339844 35.667969 18.550781 36.175781 18.855469 C 36.683594 19.164062 37.089844 19.585938 37.398438 20.128906 C 37.703125 20.671875 37.855469 21.367188 37.855469 22.214844 C 37.855469 23.742188 37.398438 24.84375 36.480469 25.523438 C 35.566406 26.199219 34.394531 26.539062 32.96875 26.539062 Z M 16.890625 11.835938 L 16.890625 48.164062 L 34.496094 48.164062 C 36.125 48.164062 37.710938 47.960938 39.253906 47.554688 C 40.796875 47.144531 42.171875 46.519531 43.375 45.671875 C 44.578125 44.824219 45.539062 43.730469 46.25 42.390625 C 46.960938 41.050781 47.320312 39.464844 47.320312 37.632812 C 47.320312 35.359375 46.765625 33.417969 45.664062 31.804688 C 44.5625 30.195312 42.890625 29.066406 40.652344 28.421875 C 42.28125 27.644531 43.511719 26.640625 44.34375 25.421875 C 45.171875 24.199219 45.589844 22.671875 45.589844 20.839844 C 45.589844 19.144531 45.308594 17.722656 44.75 16.566406 C 44.191406 15.414062 43.402344 14.488281 42.382812 13.792969 C 41.367188 13.097656 40.144531 12.597656 38.71875 12.292969 C 37.296875 11.988281 35.71875 11.835938 33.988281 11.835938 Z M 24.878906 41.957031 L 24.878906 31.984375 L 33.582031 31.984375 C 35.3125 31.984375 36.703125 32.382812 37.753906 33.179688 C 38.804688 33.976562 39.332031 35.308594 39.332031 37.175781 C 39.332031 38.125 39.167969 38.902344 38.847656 39.515625 C 38.523438 40.125 38.09375 40.609375 37.550781 40.964844 C 37.007812 41.320312 36.378906 41.574219 35.667969 41.726562 C 34.953125 41.878906 34.207031 41.957031 33.429688 41.957031 Z M 24.878906 41.957031 "/>
</g>
</svg>
